<?xml version="1.0" encoding="utf-8"?>
<!-- Generator: Adobe Illustrator 25.0.0, SVG Export Plug-In . SVG Version: 6.00 Build 0)  -->
<svg version="1.1" id="Layer_1" xmlns="http://www.w3.org/2000/svg" xmlns:xlink="http://www.w3.org/1999/xlink" x="0px" y="0px"
	 viewBox="0 0 800 600" style="enable-background:new 0 0 800 600;" xml:space="preserve">
<style type="text/css">
	.st0{stroke:#000000;stroke-width:0.5;}
</style>
<desc>Produce by Acme CAD Converter</desc>
<polygon class="st0" points="603.6,442.3 602.9,457.8 600.4,473.1 596.4,488.2 590.8,502.6 583.8,516.5 575.3,529.5 565.5,541.6 
	554.5,552.7 542.5,562.4 529.4,570.9 515.6,578 501,583.5 486,587.5 470.7,590 455.1,590.8 441.7,590 428.5,587.5 415.6,583.5 
	403.4,578 391.8,571.1 381.3,562.7 371.7,553.2 363.5,542.6 356.5,531.1 351,518.9 347,506 344.6,492.8 343.7,479.4 344.6,467.5 
	347.1,455.8 351.3,444.7 357,434.2 364.2,424.7 372.6,416.2 382.1,409.1 392.6,403.4 403.7,399.2 415.4,396.7 427.3,395.8 
	439.2,396.7 450.8,399.2 462,403.4 472.4,409.1 482,416.2 490.4,424.7 497.6,434.2 503.3,444.7 507.5,455.8 510,467.5 510.8,479.4 
	518.7,468.6 525.1,456.8 529.9,444.4 533.1,431.4 534.7,418.2 534.6,404.9 532.9,391.6 529.5,378.7 524.5,366.3 517.9,354.7 
	510,343.9 500.8,334.3 490.4,325.9 479,318.9 466.9,313.3 454.1,309.4 441,307 427.7,306.3 414.3,307.4 401.3,310 388.6,314.4 
	376.7,320.2 365.5,327.6 348.8,336.6 331.2,343.9 313.1,349.5 294.5,353.4 275.6,355.4 256.6,355.7 237.6,354.1 219,350.7 
	200.7,345.5 183,338.6 166,330.1 150,320 134.9,308.3 121.1,295.3 108.6,281 97.5,265.6 87.9,249.2 79.9,232 73.7,214 69.2,195.6 
	66.5,176.7 65.6,157.8 66.4,142.3 68.8,126.9 72.8,111.9 78.4,97.4 85.5,83.5 93.9,70.5 103.7,58.4 114.7,47.4 126.8,37.6 
	139.8,29.1 153.7,22 168.2,16.5 183.2,12.5 198.5,10 214.1,9.2 227.5,10 240.7,12.5 253.6,16.5 265.9,22 277.4,28.9 288,37.3 
	297.5,46.8 305.8,57.4 312.7,68.9 318.3,81.1 322.2,94 324.7,107.2 325.5,120.6 324.6,132.5 322.1,144.2 317.9,155.3 312.2,165.8 
	305.1,175.3 296.7,183.8 287.1,190.9 276.6,196.6 265.5,200.8 253.8,203.3 241.9,204.2 230.1,203.3 218.4,200.8 207.2,196.6 
	196.8,190.9 187.2,183.8 178.8,175.3 171.6,165.8 165.9,155.3 161.8,144.2 159.2,132.5 158.4,120.6 150.6,131.5 144.2,143.2 
	139.3,155.6 136.1,168.6 134.5,181.8 134.6,195.2 136.3,208.4 139.7,221.3 144.7,233.7 151.3,245.3 159.2,256.1 168.5,265.7 
	178.8,274.1 190.2,281.1 202.3,286.7 215.1,290.6 228.2,293 241.6,293.7 254.9,292.6 268,290 280.6,285.6 292.6,279.8 303.7,272.4 
	320.5,263.5 338,256.1 356.2,250.5 374.7,246.6 393.6,244.6 412.6,244.3 431.6,245.9 450.2,249.3 468.6,254.5 486.2,261.4 
	503.2,269.9 519.2,280 534.3,291.7 548.1,304.7 560.6,319 571.7,334.4 581.3,350.8 589.3,368.1 595.5,386 600,404.5 602.7,423.3 "/>
</svg>
